<mxfile host="app.diagrams.net" modified="2021-11-29T03:25:43.360Z" agent="5.0 (Macintosh; Intel Mac OS X 10_15_7) AppleWebKit/537.36 (KHTML, like Gecko) Chrome/96.0.4664.45 Safari/537.36" etag="eZE2LQYvmmGCwiwmdfy9" version="15.8.2" type="github">
  <diagram id="C5RBs43oDa-KdzZeNtuy" name="Page-1">
    <mxGraphModel dx="1026" dy="518" grid="1" gridSize="10" guides="1" tooltips="1" connect="1" arrows="1" fold="1" page="1" pageScale="1" pageWidth="827" pageHeight="1169" math="0" shadow="0">
      <root>
        <mxCell id="WIyWlLk6GJQsqaUBKTNV-0" />
        <mxCell id="WIyWlLk6GJQsqaUBKTNV-1" parent="WIyWlLk6GJQsqaUBKTNV-0" />
        <mxCell id="1Mz0itTU7u4iKUlFBAO6-0" value="InputProbability" style="swimlane;fontStyle=1;align=center;verticalAlign=top;childLayout=stackLayout;horizontal=1;startSize=26;horizontalStack=0;resizeParent=1;resizeParentMax=0;resizeLast=0;collapsible=1;marginBottom=0;" vertex="1" parent="WIyWlLk6GJQsqaUBKTNV-1">
          <mxGeometry x="320" y="80" width="250" height="128" as="geometry" />
        </mxCell>
        <mxCell id="1Mz0itTU7u4iKUlFBAO6-1" value="+ MainView: mainView&#xa;+ MainModel: mainModel" style="text;strokeColor=none;fillColor=none;align=left;verticalAlign=top;spacingLeft=4;spacingRight=4;overflow=hidden;rotatable=0;points=[[0,0.5],[1,0.5]];portConstraint=eastwest;" vertex="1" parent="1Mz0itTU7u4iKUlFBAO6-0">
          <mxGeometry y="26" width="250" height="44" as="geometry" />
        </mxCell>
        <mxCell id="1Mz0itTU7u4iKUlFBAO6-2" value="" style="line;strokeWidth=1;fillColor=none;align=left;verticalAlign=middle;spacingTop=-1;spacingLeft=3;spacingRight=3;rotatable=0;labelPosition=right;points=[];portConstraint=eastwest;" vertex="1" parent="1Mz0itTU7u4iKUlFBAO6-0">
          <mxGeometry y="70" width="250" height="8" as="geometry" />
        </mxCell>
        <mxCell id="1Mz0itTU7u4iKUlFBAO6-3" value="+ InputProbability (mainView, mainModel)&#xa;+ getProbabilityGraph (int, int): void" style="text;strokeColor=none;fillColor=none;align=left;verticalAlign=top;spacingLeft=4;spacingRight=4;overflow=hidden;rotatable=0;points=[[0,0.5],[1,0.5]];portConstraint=eastwest;" vertex="1" parent="1Mz0itTU7u4iKUlFBAO6-0">
          <mxGeometry y="78" width="250" height="50" as="geometry" />
        </mxCell>
        <mxCell id="1Mz0itTU7u4iKUlFBAO6-4" value="MainController" style="swimlane;fontStyle=1;align=center;verticalAlign=top;childLayout=stackLayout;horizontal=1;startSize=26;horizontalStack=0;resizeParent=1;resizeParentMax=0;resizeLast=0;collapsible=1;marginBottom=0;" vertex="1" parent="WIyWlLk6GJQsqaUBKTNV-1">
          <mxGeometry x="40" y="80" width="230" height="170" as="geometry">
            <mxRectangle x="40" y="80" width="112" height="26" as="alternateBounds" />
          </mxGeometry>
        </mxCell>
        <mxCell id="1Mz0itTU7u4iKUlFBAO6-5" value="+ MainView: mainView&#xa;+ MainModel: mainModel&#xa;+ SwitchHistograms: switcher&#xa;+ InputProbability: dataInput" style="text;strokeColor=none;fillColor=none;align=left;verticalAlign=top;spacingLeft=4;spacingRight=4;overflow=hidden;rotatable=0;points=[[0,0.5],[1,0.5]];portConstraint=eastwest;" vertex="1" parent="1Mz0itTU7u4iKUlFBAO6-4">
          <mxGeometry y="26" width="230" height="74" as="geometry" />
        </mxCell>
        <mxCell id="1Mz0itTU7u4iKUlFBAO6-6" value="" style="line;strokeWidth=1;fillColor=none;align=left;verticalAlign=middle;spacingTop=-1;spacingLeft=3;spacingRight=3;rotatable=0;labelPosition=right;points=[];portConstraint=eastwest;" vertex="1" parent="1Mz0itTU7u4iKUlFBAO6-4">
          <mxGeometry y="100" width="230" height="8" as="geometry" />
        </mxCell>
        <mxCell id="1Mz0itTU7u4iKUlFBAO6-7" value="+ MainController (mainView, mainModel)&#xa;+ setMainModel (mainModel): void&#xa;+ actionPerformed (ActionEvent): void" style="text;strokeColor=none;fillColor=none;align=left;verticalAlign=top;spacingLeft=4;spacingRight=4;overflow=hidden;rotatable=0;points=[[0,0.5],[1,0.5]];portConstraint=eastwest;" vertex="1" parent="1Mz0itTU7u4iKUlFBAO6-4">
          <mxGeometry y="108" width="230" height="62" as="geometry" />
        </mxCell>
        <mxCell id="1Mz0itTU7u4iKUlFBAO6-8" value="SwitchHistograms" style="swimlane;fontStyle=1;align=center;verticalAlign=top;childLayout=stackLayout;horizontal=1;startSize=26;horizontalStack=0;resizeParent=1;resizeParentMax=0;resizeLast=0;collapsible=1;marginBottom=0;" vertex="1" parent="WIyWlLk6GJQsqaUBKTNV-1">
          <mxGeometry x="390" y="270" width="250" height="130" as="geometry" />
        </mxCell>
        <mxCell id="1Mz0itTU7u4iKUlFBAO6-9" value="+ MainView: mainView&#xa;+ MainModel: mainModel" style="text;strokeColor=none;fillColor=none;align=left;verticalAlign=top;spacingLeft=4;spacingRight=4;overflow=hidden;rotatable=0;points=[[0,0.5],[1,0.5]];portConstraint=eastwest;" vertex="1" parent="1Mz0itTU7u4iKUlFBAO6-8">
          <mxGeometry y="26" width="250" height="44" as="geometry" />
        </mxCell>
        <mxCell id="1Mz0itTU7u4iKUlFBAO6-10" value="" style="line;strokeWidth=1;fillColor=none;align=left;verticalAlign=middle;spacingTop=-1;spacingLeft=3;spacingRight=3;rotatable=0;labelPosition=right;points=[];portConstraint=eastwest;" vertex="1" parent="1Mz0itTU7u4iKUlFBAO6-8">
          <mxGeometry y="70" width="250" height="8" as="geometry" />
        </mxCell>
        <mxCell id="1Mz0itTU7u4iKUlFBAO6-11" value="+ SwitchHistograms (mainView, mainModel)&#xa;+ changeHistogram (String): void" style="text;strokeColor=none;fillColor=none;align=left;verticalAlign=top;spacingLeft=4;spacingRight=4;overflow=hidden;rotatable=0;points=[[0,0.5],[1,0.5]];portConstraint=eastwest;" vertex="1" parent="1Mz0itTU7u4iKUlFBAO6-8">
          <mxGeometry y="78" width="250" height="52" as="geometry" />
        </mxCell>
      </root>
    </mxGraphModel>
  </diagram>
</mxfile>
